<svg width="21" height="21" viewBox="0 0 21 21" fill="none" xmlns="http://www.w3.org/2000/svg">
<path fill-rule="evenodd" clip-rule="evenodd" d="M3.06066 0.93934C2.47487 0.353553 1.52513 0.353553 0.93934 0.93934C0.353553 1.52513 0.353553 2.47487 0.93934 3.06066L8.37868 10.5L0.93934 17.9393C0.353553 18.5251 0.353553 19.4749 0.93934 20.0607C1.52513 20.6464 2.47487 20.6464 3.06066 20.0607L10.5 12.6213L17.5563 19.6777C18.1421 20.2635 19.0919 20.2635 19.6777 19.6777C20.2635 19.0919 20.2635 18.1421 19.6777 17.5563L12.6213 10.5L19.6777 3.44365C20.2635 2.85787 20.2635 1.90812 19.6777 1.32233C19.0919 0.736544 18.1421 0.736545 17.5563 1.32233L10.5 8.37868L3.06066 0.93934Z" fill="#fff"/>
</svg>
