<svg width="27" height="18" viewBox="0 0 27 18" fill="none" xmlns="http://www.w3.org/2000/svg">
<path fill-rule="evenodd" clip-rule="evenodd" d="M1.5 0.5C0.671573 0.5 0 1.17157 0 2C0 2.82843 0.671573 3.5 1.5 3.5H25C25.8284 3.5 26.5 2.82843 26.5 2C26.5 1.17157 25.8284 0.5 25 0.5H1.5ZM0 9C0 8.17157 0.671573 7.5 1.5 7.5H25C25.8284 7.5 26.5 8.17157 26.5 9C26.5 9.82843 25.8284 10.5 25 10.5H1.5C0.671573 10.5 0 9.82843 0 9ZM0 16C0 15.1716 0.671573 14.5 1.5 14.5H25C25.8284 14.5 26.5 15.1716 26.5 16C26.5 16.8284 25.8284 17.5 25 17.5H1.5C0.671573 17.5 0 16.8284 0 16Z" fill="#fff"/>
</svg>
